# xmcd CD database file
#
# Track frame offsets:
#	150
#	19672
#	36292
#	54603
#	80942
#	104296
#	127677
#	153641
#	172263
#	190621
#
# Disc length: 2868 seconds
#
# Revision: 3
# Processed by: cddbd v1.5.2PL0 Copyright (c) Steve Scherf et al.
# Submitted via: CDex 1.70beta3
#
DISCID=810b320a
DTITLE=東京ブラススタイル - 饗宴ラフレシア
DYEAR=2006
DGENRE=Jazz
TTITLE0=宇宙戦艦ヤマト
TTITLE1=アンパンマンのマーチ
TTITLE2=ムーンライト伝説
TTITLE3=愛・おぼえていますか
TTITLE4=燃えてヒーロー
TTITLE5=POKEMON THEME
TTITLE6=FLY ME TO THE SKY
TTITLE7=はじめてのチュウ
TTITLE8=ガッチャマンのうた
TTITLE9=CHA-LA HEAD-CHA-LA
EXTD=YEAR: 2006
EXTT0=
EXTT1=
EXTT2=
EXTT3=
EXTT4=
EXTT5=
EXTT6=
EXTT7=
EXTT8=
EXTT9=
PLAYORDER=
